<svg xmlns="http://www.w3.org/2000/svg" viewBox="0 0 64 64">
  <defs>
    <linearGradient id="glass" x1="0" y1="0" x2="1" y2="1">
      <stop stop-color="#f9fdff" stop-opacity=".96"/><stop offset=".45" stop-color="#dbe9ee" stop-opacity=".76"/><stop offset="1" stop-color="#b7cbd2" stop-opacity=".9"/>
    </linearGradient>
    <linearGradient id="rim" x1="0" y1="0" x2="0" y2="1">
      <stop stop-color="#fff"/><stop offset="1" stop-color="#aebfc6"/>
    </linearGradient>
  </defs>
  <path d="M13 17h38l-4 39H17z" fill="url(#glass)" stroke="#a9bac1" stroke-width="1.2"/>
  <path d="M10 14h44l-1 6H11z" fill="url(#rim)" stroke="#aab8be" stroke-width="1.2"/>
  <path d="M22 9h20l3 5H19z" fill="#eaf1f4" stroke="#afbec4" stroke-width="1.2"/>
  <path d="M20 22l2 30M27 21l1 33M37 21l-1 33M44 22l-2 30" stroke="#fff" stroke-opacity=".8" stroke-width="1.5"/>
  <path d="M31 27l5 3-2 3 4 1-4 6-3-2 2-4-5-3z" fill="#168edf"/>
  <path d="M39 36l3 6-3 5-1-3h-6v-4h7l-2-3z" fill="#087bd2"/>
  <path d="M31 45l-7 1-3-5 4 1 3-6 4 2-3 6h4z" fill="#0c83d7"/>
  <ellipse cx="32" cy="56" rx="16" ry="2" fill="#6c7b81" opacity=".25"/>
</svg>
